<svg xmlns="http://www.w3.org/2000/svg" version="1.1" xmlns:xlink="http://www.w3.org/1999/xlink" xmlns:svgjs="http://svgjs.dev/svgjs" viewBox="0 0 800 800"><defs><linearGradient x1="50%" y1="0%" x2="50%" y2="100%" id="ffflurry-grad" gradientTransform="rotate(270)"><stop stop-color="hsl(238, 82%, 13%)" stop-opacity="1" offset="0%"></stop><stop stop-color="hsl(1.4, 100%, 67%)" stop-opacity="1" offset="45%"></stop><stop stop-color="hsl(167, 52%, 78%)" stop-opacity="1" offset="100%"></stop></linearGradient></defs><rect width="100%" height="100%" fill="hsl(238, 82%, 13%)"></rect><g fill="url(#ffflurry-grad)"><rect width="188" height="3" x="62" y="314.5" rx="1.5" transform="rotate(45, 156, 316)" opacity="0.62"></rect><rect width="126" height="3" x="236" y="476.5" rx="1.5" transform="rotate(45, 299, 478)" opacity="0.51"></rect><rect width="165" height="3" x="-49.5" y="126.5" rx="1.5" transform="rotate(45, 33, 128)" opacity="0.79"></rect><rect width="494" height="3" x="333" y="430.5" rx="1.5" transform="rotate(45, 580, 432)" opacity="0.60"></rect><rect width="513" height="3" x="267.5" y="154.5" rx="1.5" transform="rotate(45, 524, 156)" opacity="0.68"></rect><rect width="304" height="3" x="481" y="79.5" rx="1.5" transform="rotate(45, 633, 81)" opacity="0.15"></rect><rect width="533" height="3" x="266.5" y="44.5" rx="1.5" transform="rotate(45, 533, 46)" opacity="0.16"></rect><rect width="172" height="3" x="673" y="73.5" rx="1.5" transform="rotate(45, 759, 75)" opacity="0.93"></rect><rect width="225" height="3" x="-52.5" y="35.5" rx="1.5" transform="rotate(45, 60, 37)" opacity="0.87"></rect><rect width="477" height="3" x="370.5" y="348.5" rx="1.5" transform="rotate(45, 609, 350)" opacity="0.43"></rect><rect width="327" height="3" x="573.5" y="772.5" rx="1.5" transform="rotate(45, 737, 774)" opacity="0.51"></rect><rect width="412" height="3" x="273" y="505.5" rx="1.5" transform="rotate(45, 479, 507)" opacity="0.45"></rect><rect width="311" height="3" x="-124.5" y="553.5" rx="1.5" transform="rotate(45, 31, 555)" opacity="0.15"></rect><rect width="126" height="3" x="-5" y="239.5" rx="1.5" transform="rotate(45, 58, 241)" opacity="0.95"></rect><rect width="313" height="3" x="2.5" y="36.5" rx="1.5" transform="rotate(45, 159, 38)" opacity="0.30"></rect><rect width="381" height="3" x="355.5" y="561.5" rx="1.5" transform="rotate(45, 546, 563)" opacity="0.83"></rect><rect width="448" height="3" x="88" y="557.5" rx="1.5" transform="rotate(45, 312, 559)" opacity="0.52"></rect><rect width="270" height="3" x="641" y="463.5" rx="1.5" transform="rotate(45, 776, 465)" opacity="0.81"></rect><rect width="88" height="3" x="310" y="114.5" rx="1.5" transform="rotate(45, 354, 116)" opacity="0.72"></rect><rect width="256" height="3" x="208" y="197.5" rx="1.5" transform="rotate(45, 336, 199)" opacity="0.26"></rect><rect width="352" height="3" x="-63" y="552.5" rx="1.5" transform="rotate(45, 113, 554)" opacity="0.98"></rect><rect width="539" height="3" x="-224.5" y="745.5" rx="1.5" transform="rotate(45, 45, 747)" opacity="0.08"></rect><rect width="379" height="3" x="378.5" y="266.5" rx="1.5" transform="rotate(45, 568, 268)" opacity="0.12"></rect><rect width="182" height="3" x="458" y="497.5" rx="1.5" transform="rotate(45, 549, 499)" opacity="0.65"></rect><rect width="458" height="3" x="183" y="744.5" rx="1.5" transform="rotate(45, 412, 746)" opacity="0.31"></rect><rect width="188" height="3" x="-18" y="650.5" rx="1.5" transform="rotate(45, 76, 652)" opacity="0.32"></rect><rect width="499" height="3" x="-28.5" y="49.5" rx="1.5" transform="rotate(45, 221, 51)" opacity="0.59"></rect><rect width="391" height="3" x="514.5" y="716.5" rx="1.5" transform="rotate(45, 710, 718)" opacity="0.62"></rect><rect width="508" height="3" x="507" y="550.5" rx="1.5" transform="rotate(45, 761, 552)" opacity="0.41"></rect><rect width="492" height="3" x="224" y="615.5" rx="1.5" transform="rotate(45, 470, 617)" opacity="0.54"></rect><rect width="249" height="3" x="228.5" y="408.5" rx="1.5" transform="rotate(45, 353, 410)" opacity="0.63"></rect><rect width="294" height="3" x="157" y="680.5" rx="1.5" transform="rotate(45, 304, 682)" opacity="0.32"></rect><rect width="401" height="3" x="57.5" y="267.5" rx="1.5" transform="rotate(45, 258, 269)" opacity="0.60"></rect><rect width="254" height="3" x="145" y="359.5" rx="1.5" transform="rotate(45, 272, 361)" opacity="0.27"></rect><rect width="199" height="3" x="610.5" y="143.5" rx="1.5" transform="rotate(45, 710, 145)" opacity="0.55"></rect><rect width="449" height="3" x="255.5" y="299.5" rx="1.5" transform="rotate(45, 480, 301)" opacity="0.21"></rect><rect width="431" height="3" x="-144.5" y="474.5" rx="1.5" transform="rotate(45, 71, 476)" opacity="0.44"></rect><rect width="284" height="3" x="-120" y="639.5" rx="1.5" transform="rotate(45, 22, 641)" opacity="0.21"></rect><rect width="163" height="3" x="288.5" y="652.5" rx="1.5" transform="rotate(45, 370, 654)" opacity="0.44"></rect><rect width="152" height="3" x="551" y="483.5" rx="1.5" transform="rotate(45, 627, 485)" opacity="0.41"></rect><rect width="282" height="3" x="257" y="518.5" rx="1.5" transform="rotate(45, 398, 520)" opacity="0.98"></rect><rect width="82" height="3" x="118" y="134.5" rx="1.5" transform="rotate(45, 159, 136)" opacity="0.78"></rect><rect width="271" height="3" x="118.5" y="181.5" rx="1.5" transform="rotate(45, 254, 183)" opacity="0.10"></rect><rect width="44" height="3" x="750" y="669.5" rx="1.5" transform="rotate(45, 772, 671)" opacity="0.74"></rect><rect width="501" height="3" x="-58.5" y="444.5" rx="1.5" transform="rotate(45, 192, 446)" opacity="0.25"></rect><rect width="630" height="3" x="-256" y="372.5" rx="1.5" transform="rotate(45, 59, 374)" opacity="0.54"></rect><rect width="520" height="3" x="111" y="284.5" rx="1.5" transform="rotate(45, 371, 286)" opacity="0.96"></rect><rect width="266" height="3" x="622" y="281.5" rx="1.5" transform="rotate(45, 755, 283)" opacity="0.48"></rect><rect width="364" height="3" x="-42" y="630.5" rx="1.5" transform="rotate(45, 140, 632)" opacity="0.91"></rect><rect width="228" height="3" x="312" y="363.5" rx="1.5" transform="rotate(45, 426, 365)" opacity="0.83"></rect><rect width="357" height="3" x="85.5" y="756.5" rx="1.5" transform="rotate(45, 264, 758)" opacity="0.71"></rect><rect width="217" height="3" x="566.5" y="231.5" rx="1.5" transform="rotate(45, 675, 233)" opacity="0.80"></rect><rect width="217" height="3" x="615.5" y="440.5" rx="1.5" transform="rotate(45, 724, 442)" opacity="0.58"></rect><rect width="284" height="3" x="512" y="425.5" rx="1.5" transform="rotate(45, 654, 427)" opacity="0.76"></rect><rect width="383" height="3" x="-48.5" y="739.5" rx="1.5" transform="rotate(45, 143, 741)" opacity="0.86"></rect><rect width="483" height="3" x="-48.5" y="554.5" rx="1.5" transform="rotate(45, 193, 556)" opacity="0.31"></rect><rect width="219" height="3" x="656.5" y="375.5" rx="1.5" transform="rotate(45, 766, 377)" opacity="0.89"></rect><rect width="257" height="3" x="516.5" y="636.5" rx="1.5" transform="rotate(45, 645, 638)" opacity="0.57"></rect><rect width="61" height="3" x="656.5" y="358.5" rx="1.5" transform="rotate(45, 687, 360)" opacity="0.30"></rect><rect width="468" height="3" x="161" y="589.5" rx="1.5" transform="rotate(45, 395, 591)" opacity="0.54"></rect><rect width="507" height="3" x="462.5" y="615.5" rx="1.5" transform="rotate(45, 716, 617)" opacity="0.32"></rect><rect width="82" height="3" x="656" y="506.5" rx="1.5" transform="rotate(45, 697, 508)" opacity="0.22"></rect><rect width="163" height="3" x="463.5" y="765.5" rx="1.5" transform="rotate(45, 545, 767)" opacity="0.57"></rect><rect width="410" height="3" x="45" y="116.5" rx="1.5" transform="rotate(45, 250, 118)" opacity="0.73"></rect><rect width="437" height="3" x="-1.5" y="660.5" rx="1.5" transform="rotate(45, 217, 662)" opacity="0.44"></rect><rect width="438" height="3" x="80" y="38.5" rx="1.5" transform="rotate(45, 299, 40)" opacity="0.47"></rect><rect width="353" height="3" x="257.5" y="443.5" rx="1.5" transform="rotate(45, 434, 445)" opacity="0.10"></rect><rect width="180" height="3" x="426" y="691.5" rx="1.5" transform="rotate(45, 516, 693)" opacity="0.90"></rect><rect width="31" height="3" x="88.5" y="119.5" rx="1.5" transform="rotate(45, 104, 121)" opacity="0.87"></rect><rect width="169" height="3" x="432.5" y="400.5" rx="1.5" transform="rotate(45, 517, 402)" opacity="0.37"></rect><rect width="55" height="3" x="598.5" y="727.5" rx="1.5" transform="rotate(45, 626, 729)" opacity="0.68"></rect><rect width="195" height="3" x="76.5" y="207.5" rx="1.5" transform="rotate(45, 174, 209)" opacity="0.96"></rect><rect width="228" height="3" x="452" y="627.5" rx="1.5" transform="rotate(45, 566, 629)" opacity="0.80"></rect><rect width="436" height="3" x="222" y="196.5" rx="1.5" transform="rotate(45, 440, 198)" opacity="0.16"></rect><rect width="176" height="3" x="548" y="553.5" rx="1.5" transform="rotate(45, 636, 555)" opacity="0.84"></rect><rect width="27" height="3" x="243.5" y="583.5" rx="1.5" transform="rotate(45, 257, 585)" opacity="0.20"></rect><rect width="681" height="3" x="75.5" y="50.5" rx="1.5" transform="rotate(45, 416, 52)" opacity="0.11"></rect></g></svg>